<?xml version="1.0" encoding="UTF-8" standalone="no"?>
<svg width="58px" height="58px" viewBox="0 0 58 58" version="1.1" xmlns="http://www.w3.org/2000/svg" xmlns:xlink="http://www.w3.org/1999/xlink" xmlns:sketch="http://www.bohemiancoding.com/sketch/ns">
    <!-- Generator: Sketch 3.4.4 (17249) - http://www.bohemiancoding.com/sketch -->
    <title>Google+</title>
    <desc>Created with Sketch.</desc>
    <defs></defs>
    <g id="Welcome" stroke="none" stroke-width="1" fill="none" fill-rule="evenodd" sketch:type="MSPage">
        <g id="Trails" sketch:type="MSArtboardGroup" transform="translate(-844.000000, -2216.000000)">
            <g id="Google+" sketch:type="MSLayerGroup" transform="translate(848.000000, 2218.000000)">
                <path d="M25,50 C38.8071194,50 50,38.8071194 50,25 C50,11.1928806 38.8071194,0 25,0 C11.1928806,0 0,11.1928806 0,25 C0,38.8071194 11.1928806,50 25,50 Z" id="Google+-BG" fill="#D95333" sketch:type="MSShapeGroup"></path>
                <g id="Google+-Logo" transform="translate(12.000000, 12.000000)" fill="#FFFFFF" sketch:type="MSShapeGroup">
                    <path d="M8.21107141,25 L8.21107141,25 C5.18528801,25 3,22.9071065 3,20.3932733 C3,17.9292503 5.68082179,15.9650572 8.70660519,16.0004715 C9.41272754,16.0088211 10.1002607,16.0462508 10.6977693,16.2575844 C12.340254,17.5057194 13.5185409,18.2111244 13.8510212,19.6331634 C13.9134276,19.9216596 14,20.33281 14,20.6359902 C14,23.1501113 12.4648013,25 8.21107141,25 L8.21107141,25 Z M8.69547545,10.9986912 L8.69547545,10.9986912 C6.52821209,10.9363463 4.20086194,8.91176118 4.01244121,6.1512344 C3.85263777,3.8100453 5.24581779,0.938652898 7.41251448,1.00099787 C9.57892782,1.0636139 11.5671207,3.40100809 11.9414121,6.14445777 C12.3151368,8.88817852 10.8618888,11.0610362 8.69547545,10.9986912 L8.69547545,10.9986912 Z M13.5304045,14.9965623 C12.7923625,14.482827 11.3809223,13.2333819 11.3809223,12.4987457 C11.3809223,11.6382256 11.6306958,11.214139 12.9483333,10.2016992 C14.2987055,9.16429744 15.0744337,7.60215553 15.0744337,5.90500377 C15.0744337,3.88522407 14.3160356,1.99159673 12.5987055,1.34204631 L15.0744337,1.34204631 L17,0 L8.74757282,0 C5.08679612,0 1.7662945,2.79897179 1.7662945,5.9581488 C1.7662945,9.18657541 4.26182848,11.7920241 7.98642395,11.7920241 C8.24527508,11.7920241 8.49697411,11.7869243 8.7434466,11.7694777 C8.50165049,12.2244314 8.22491909,12.709447 8.22491909,13.2414341 C8.22491909,14.1387263 8.81964401,14.8937615 9.44050162,15.4874828 C8.97148867,15.4874828 8.5187055,15.5006349 8.02466019,15.5006349 C3.49022654,15.5006349 0,18.3406733 0,21.2853913 C0,24.1855534 3.82610032,26 8.36080906,26 C13.5304045,26 16.4498382,23.1384889 16.4498382,20.2380584 C16.4498382,17.9125605 15.687589,16.4967017 13.5304045,14.9965623 L13.5304045,14.9965623 Z" id="Fill-1"></path>
                    <path d="M23.0441895,3.00830078 L23.0441895,0 L21.0014038,0 L21.0014038,3.00830078 L18.0076904,3.00830078 L18.0076904,5.03826904 L21.0014038,5.03826904 L21.0014038,8 L23.0441895,8 L23.0441895,5.03826904 L26,4.97540283 L26,3.00830078 L23.0441895,3.00830078 Z" id="Fill-2"></path>
                </g>
            </g>
        </g>
    </g>
</svg>