<?xml version="1.0" encoding="UTF-8" standalone="no"?>
<svg width="58px" height="58px" viewBox="0 0 58 58" version="1.1" xmlns="http://www.w3.org/2000/svg" xmlns:xlink="http://www.w3.org/1999/xlink" xmlns:sketch="http://www.bohemiancoding.com/sketch/ns">
    <!-- Generator: Sketch 3.4.4 (17249) - http://www.bohemiancoding.com/sketch -->
    <title>Twitter</title>
    <desc>Created with Sketch.</desc>
    <defs></defs>
    <g id="Welcome" stroke="none" stroke-width="1" fill="none" fill-rule="evenodd" sketch:type="MSPage">
        <g id="Trails" sketch:type="MSArtboardGroup" transform="translate(-755.000000, -2216.000000)">
            <g id="Twitter" sketch:type="MSLayerGroup" transform="translate(759.000000, 2218.000000)">
                <path d="M25,50 C38.8071194,50 50,38.8071194 50,25 C50,11.1928806 38.8071194,0 25,0 C11.1928806,0 0,11.1928806 0,25 C0,38.8071194 11.1928806,50 25,50 Z" id="Twitter-BG" fill="#55ACEE" sketch:type="MSShapeGroup"></path>
                <path d="M21.1768902,36 C18.1645269,36 15.3606277,35.080602 13,33.5048025 C13.4173086,33.5560947 13.8419401,33.5823349 14.2724679,33.5823349 C16.7715644,33.5823349 19.071612,32.6944252 20.8971945,31.2048718 C18.5630052,31.1600158 16.5930575,29.5543123 15.9143129,27.3477572 C16.2399429,27.4126151 16.5741322,27.447371 16.9178317,27.447371 C17.4043747,27.447371 17.8756063,27.3795425 18.3232525,27.2525993 C15.8829291,26.7424497 14.0443176,24.497673 14.0443176,21.8067135 C14.0443176,21.7833449 14.0443176,21.7600753 14.0446981,21.7369046 C14.7639563,22.1528864 15.5864004,22.4027131 16.4608654,22.4315279 C15.0295768,21.4355877 14.0877794,19.7356174 14.0877794,17.8087929 C14.0877794,16.7909694 14.3508321,15.8369145 14.8099857,15.0166353 C17.440894,18.37677 21.3713742,20.58788 25.80466,20.8194871 C25.7137423,20.4130112 25.6664765,19.9891078 25.6664765,19.5538172 C25.6664765,16.4866818 28.054874,14 31.0008559,14 C32.5350452,14 33.9213505,14.6745222 34.8944365,15.753936 C36.1094627,15.5048025 37.2510699,15.0425785 38.2816928,14.4061788 C37.8834047,15.7030399 37.0376605,16.7914645 35.9362815,17.4788593 C37.0153115,17.3445886 38.0433666,17.0460442 39,16.6043173 C38.2848312,17.7180909 37.3804089,18.6963066 36.3382786,19.4793544 C36.3485497,19.7174968 36.3536852,19.9570254 36.3536852,20.1978414 C36.3536852,27.5370829 30.9883975,36 21.1768902,36" id="Twitter-Logo" fill="#FFFFFF" sketch:type="MSShapeGroup"></path>
            </g>
        </g>
    </g>
</svg>